<?xml version="1.0" encoding="UTF-8"?>
<svg width="807.63" height="807.57" version="1.1" viewBox="0 0 807.63 807.57" xml:space="preserve" xmlns="http://www.w3.org/2000/svg"><g transform="translate(-506.13 -112.81)"><path fill="#0099ff" d="m892.15 919.99c-163.63-5.3777-316.39-120.89-365.47-277.13-45.839-136.53-14.324-297.9 87.99-401.14 118.14-131.02 327.34-168.62 482.16-82.824 130.44 66.539 218.56 208.3 216.83 355.23 4.1646 177.91-124.99 350.09-298.77 391.75-39.937 10.537-81.407 16.059-122.74 14.117zm-85.123-191.46c100-58.47 267.65-154.49 329.2-190.42 21.04-12.284 21.664-15.632 21.718-21.087.097-9.6883-5.4481-12.461-25.495-24.701-87.132-50.514-223.42-129.86-313.63-181.18-19.425-11.051-24.465-12.623-33.175-7.0189-8.1999 6.8232-7.4086 17.918-7.4115 26.588-.0374 113.1-.45852 279.32.89082 388.54 1.6422 14.172 17.822 15.174 27.897 9.2837z"/></g></svg>
